{
  "id": "03b3206d-1331-40a0-aaa6-f810fc8d8e94",
  "name": "Test Sequence 1",
  "tempo": 120.0,
  "time_signature": "4/4",
  "tracks": [
    {
      "id": "285bff7a-069d-4050-8135-c4de7447ac51",
      "name": "MIDI 1",
      "sequence_id": "03b3206d-1331-40a0-aaa6-f810fc8d8e94",
      "type": "midi",
      "color": "#ef4444",
      "is_muted": false,
      "is_solo": false,
      "is_armed": false,
      "volume": 1.0,
      "pan": 0.0,
      "instrument": null,
      "midi_channel": 0,
      "sample_id": null,
      "sample_name": null,
      "sample_file_path": null
    }
  ],
  "clips": [
    {
      "id": "9dfa6356-bb03-4599-ae58-037227ecdcb7",
      "name": "Clip 1",
      "type": "midi",
      "track_id": "285bff7a-069d-4050-8135-c4de7447ac51",
      "start_time": 4.0625,
      "duration": 4.0,
      "is_muted": false,
      "is_looped": false,
      "gain": 1.0,
      "midi_events": [
        {
          "note": 60,
          "note_name": "C4",
          "start_time": 0.0,
          "duration": 0.5,
          "velocity": 100,
          "channel": 0
        },
        {
          "note": 64,
          "note_name": "E4",
          "start_time": 1.0,
          "duration": 0.5,
          "velocity": 100,
          "channel": 0
        },
        {
          "note": 67,
          "note_name": "G4",
          "start_time": 2.0,
          "duration": 0.5,
          "velocity": 100,
          "channel": 0
        },
        {
          "note": 72,
          "note_name": "C5",
          "start_time": 3.0,
          "duration": 0.5,
          "velocity": 100,
          "channel": 0
        }
      ],
      "audio_file_path": null,
      "audio_offset": null
    },
    {
      "id": "c5c4522b-e891-48f2-97cb-38d342f3fb75",
      "name": "Clip 2",
      "type": "midi",
      "track_id": "285bff7a-069d-4050-8135-c4de7447ac51",
      "start_time": 25.3125,
      "duration": 4.0,
      "is_muted": false,
      "is_looped": false,
      "gain": 1.0,
      "midi_events": [
        {
          "note": 60,
          "note_name": "C4",
          "start_time": 0.0,
          "duration": 0.5,
          "velocity": 100,
          "channel": 0
        },
        {
          "note": 64,
          "note_name": "E4",
          "start_time": 1.0,
          "duration": 0.5,
          "velocity": 100,
          "channel": 0
        },
        {
          "note": 67,
          "note_name": "G4",
          "start_time": 2.0,
          "duration": 0.5,
          "velocity": 100,
          "channel": 0
        },
        {
          "note": 72,
          "note_name": "C5",
          "start_time": 3.0,
          "duration": 0.5,
          "velocity": 100,
          "channel": 0
        }
      ],
      "audio_file_path": null,
      "audio_offset": null
    },
    {
      "id": "0dfe7b46-1fb8-4f67-84ab-46f2a494dbb5",
      "name": "Clip 3",
      "type": "midi",
      "track_id": "285bff7a-069d-4050-8135-c4de7447ac51",
      "start_time": 19.5625,
      "duration": 4.0,
      "is_muted": false,
      "is_looped": false,
      "gain": 1.0,
      "midi_events": [
        {
          "note": 60,
          "note_name": "C4",
          "start_time": 0.0,
          "duration": 0.5,
          "velocity": 100,
          "channel": 0
        },
        {
          "note": 64,
          "note_name": "E4",
          "start_time": 1.0,
          "duration": 0.5,
          "velocity": 100,
          "channel": 0
        },
        {
          "note": 67,
          "note_name": "G4",
          "start_time": 2.0,
          "duration": 0.5,
          "velocity": 100,
          "channel": 0
        },
        {
          "note": 72,
          "note_name": "C5",
          "start_time": 3.0,
          "duration": 0.5,
          "velocity": 100,
          "channel": 0
        }
      ],
      "audio_file_path": null,
      "audio_offset": null
    },
    {
      "id": "8396a028-3d21-441c-bc07-08c2cf2c863f",
      "name": "Clip 4",
      "type": "midi",
      "track_id": "285bff7a-069d-4050-8135-c4de7447ac51",
      "start_time": 55.1875,
      "duration": 4.0,
      "is_muted": false,
      "is_looped": false,
      "gain": 1.0,
      "midi_events": [
        {
          "note": 60,
          "note_name": "C4",
          "start_time": 0.0,
          "duration": 0.5,
          "velocity": 100,
          "channel": 0
        },
        {
          "note": 64,
          "note_name": "E4",
          "start_time": 1.0,
          "duration": 0.5,
          "velocity": 100,
          "channel": 0
        },
        {
          "note": 67,
          "note_name": "G4",
          "start_time": 2.0,
          "duration": 0.5,
          "velocity": 100,
          "channel": 0
        },
        {
          "note": 72,
          "note_name": "C5",
          "start_time": 3.0,
          "duration": 0.5,
          "velocity": 100,
          "channel": 0
        }
      ],
      "audio_file_path": null,
      "audio_offset": null
    },
    {
      "id": "ddcbdee0-253c-42fa-a383-904870aa58a1",
      "name": "Clip 5",
      "type": "midi",
      "track_id": "285bff7a-069d-4050-8135-c4de7447ac51",
      "start_time": 73.5625,
      "duration": 4.0,
      "is_muted": false,
      "is_looped": false,
      "gain": 1.0,
      "midi_events": [
        {
          "note": 60,
          "note_name": "C4",
          "start_time": 0.0,
          "duration": 0.5,
          "velocity": 100,
          "channel": 0
        },
        {
          "note": 64,
          "note_name": "E4",
          "start_time": 1.0,
          "duration": 0.5,
          "velocity": 100,
          "channel": 0
        },
        {
          "note": 67,
          "note_name": "G4",
          "start_time": 2.0,
          "duration": 0.5,
          "velocity": 100,
          "channel": 0
        },
        {
          "note": 72,
          "note_name": "C5",
          "start_time": 3.0,
          "duration": 0.5,
          "velocity": 100,
          "channel": 0
        }
      ],
      "audio_file_path": null,
      "audio_offset": null
    },
    {
      "id": "cebd5fdd-9b29-4e5a-a59d-d44a34c141c2",
      "name": "Clip 6",
      "type": "midi",
      "track_id": "285bff7a-069d-4050-8135-c4de7447ac51",
      "start_time": 59.25,
      "duration": 4.0,
      "is_muted": false,
      "is_looped": false,
      "gain": 1.0,
      "midi_events": [
        {
          "note": 60,
          "note_name": "C4",
          "start_time": 0.0,
          "duration": 0.5,
          "velocity": 100,
          "channel": 0
        },
        {
          "note": 64,
          "note_name": "E4",
          "start_time": 1.0,
          "duration": 0.5,
          "velocity": 100,
          "channel": 0
        },
        {
          "note": 67,
          "note_name": "G4",
          "start_time": 2.0,
          "duration": 0.5,
          "velocity": 100,
          "channel": 0
        },
        {
          "note": 72,
          "note_name": "C5",
          "start_time": 3.0,
          "duration": 0.5,
          "velocity": 100,
          "channel": 0
        }
      ],
      "audio_file_path": null,
      "audio_offset": null
    },
    {
      "id": "95566ff4-37b7-4460-84be-fd156a288434",
      "name": "Clip 7",
      "type": "midi",
      "track_id": "285bff7a-069d-4050-8135-c4de7447ac51",
      "start_time": 81.125,
      "duration": 4.0,
      "is_muted": false,
      "is_looped": false,
      "gain": 1.0,
      "midi_events": [
        {
          "note": 60,
          "note_name": "C4",
          "start_time": 0.0,
          "duration": 0.5,
          "velocity": 100,
          "channel": 0
        },
        {
          "note": 64,
          "note_name": "E4",
          "start_time": 1.0,
          "duration": 0.5,
          "velocity": 100,
          "channel": 0
        },
        {
          "note": 67,
          "note_name": "G4",
          "start_time": 2.0,
          "duration": 0.5,
          "velocity": 100,
          "channel": 0
        },
        {
          "note": 72,
          "note_name": "C5",
          "start_time": 3.0,
          "duration": 0.5,
          "velocity": 100,
          "channel": 0
        }
      ],
      "audio_file_path": null,
      "audio_offset": null
    },
    {
      "id": "5cc9f9d4-df11-4b68-937b-524fa9113405",
      "name": "Clip 8",
      "type": "midi",
      "track_id": "285bff7a-069d-4050-8135-c4de7447ac51",
      "start_time": 70.1875,
      "duration": 4.0,
      "is_muted": false,
      "is_looped": false,
      "gain": 1.0,
      "midi_events": [
        {
          "note": 60,
          "note_name": "C4",
          "start_time": 0.0,
          "duration": 0.5,
          "velocity": 100,
          "channel": 0
        },
        {
          "note": 64,
          "note_name": "E4",
          "start_time": 1.0,
          "duration": 0.5,
          "velocity": 100,
          "channel": 0
        },
        {
          "note": 67,
          "note_name": "G4",
          "start_time": 2.0,
          "duration": 0.5,
          "velocity": 100,
          "channel": 0
        },
        {
          "note": 72,
          "note_name": "C5",
          "start_time": 3.0,
          "duration": 0.5,
          "velocity": 100,
          "channel": 0
        }
      ],
      "audio_file_path": null,
      "audio_offset": null
    }
  ],
  "is_playing": false,
  "current_position": 0.0,
  "loop_enabled": false,
  "loop_start": 0.0,
  "loop_end": 16.0,
  "zoom": 0.5,
  "snap_enabled": true,
  "grid_size": 16,
  "created_at": "2026-02-13T14:49:01.328412",
  "updated_at": "2026-02-13T15:05:42.393669"
}