{
  "id": "03b3206d-1331-40a0-aaa6-f810fc8d8e94",
  "name": "Test Sequence 1",
  "tempo": 120.0,
  "time_signature": "4/4",
  "tracks": [
    {
      "id": "19a384f8-196d-4280-b16f-f5fbd54c3924",
      "name": "MIDI 1",
      "sequence_id": "03b3206d-1331-40a0-aaa6-f810fc8d8e94",
      "type": "midi",
      "color": "#ef4444",
      "is_muted": false,
      "is_solo": true,
      "is_armed": false,
      "volume": 2.0,
      "pan": 0.0,
      "instrument": "bell",
      "midi_channel": 0,
      "sample_id": null,
      "sample_name": null,
      "sample_file_path": null
    },
    {
      "id": "e25004f8-872f-427e-b528-1c7150bf0fc4",
      "name": "MIDI 2",
      "sequence_id": "03b3206d-1331-40a0-aaa6-f810fc8d8e94",
      "type": "midi",
      "color": "#3b82f6",
      "is_muted": false,
      "is_solo": false,
      "is_armed": false,
      "volume": 0.83,
      "pan": 0.0,
      "instrument": "organ",
      "midi_channel": 0,
      "sample_id": null,
      "sample_name": null,
      "sample_file_path": null
    }
  ],
  "clips": [
    {
      "id": "dc133baf-c03c-45f4-8a7c-46e7ab2a5e57",
      "name": "Clip 1",
      "type": "midi",
      "track_id": "e25004f8-872f-427e-b528-1c7150bf0fc4",
      "start_time": 0.0,
      "duration": 16.0,
      "is_muted": false,
      "is_looped": false,
      "gain": 1.0,
      "midi_events": [
        {
          "note": 106,
          "note_name": "A#7",
          "start_time": 2.0,
          "duration": 1.0,
          "velocity": 100,
          "channel": 0
        },
        {
          "note": 104,
          "note_name": "G#7",
          "start_time": 1.0,
          "duration": 1.0,
          "velocity": 100,
          "channel": 0
        },
        {
          "note": 102,
          "note_name": "F#7",
          "start_time": 1.0,
          "duration": 1.0,
          "velocity": 100,
          "channel": 0
        },
        {
          "note": 102,
          "note_name": "F#7",
          "start_time": 0.0,
          "duration": 1.0,
          "velocity": 100,
          "channel": 0
        },
        {
          "note": 103,
          "note_name": "G7",
          "start_time": 5.0,
          "duration": 1.0,
          "velocity": 100,
          "channel": 0
        },
        {
          "note": 106,
          "note_name": "A#7",
          "start_time": 6.0,
          "duration": 1.0,
          "velocity": 100,
          "channel": 0
        },
        {
          "note": 100,
          "note_name": "E7",
          "start_time": 10.0,
          "duration": 1.0,
          "velocity": 100,
          "channel": 0
        },
        {
          "note": 93,
          "note_name": "A6",
          "start_time": 6.0,
          "duration": 1.0,
          "velocity": 100,
          "channel": 0
        },
        {
          "note": 94,
          "note_name": "A#6",
          "start_time": 8.0,
          "duration": 1.0,
          "velocity": 100,
          "channel": 0
        },
        {
          "note": 94,
          "note_name": "A#6",
          "start_time": 7.0,
          "duration": 1.0,
          "velocity": 100,
          "channel": 0
        },
        {
          "note": 94,
          "note_name": "A#6",
          "start_time": 7.0,
          "duration": 1.0,
          "velocity": 100,
          "channel": 0
        },
        {
          "note": 92,
          "note_name": "G#6",
          "start_time": 8.0,
          "duration": 1.0,
          "velocity": 100,
          "channel": 0
        },
        {
          "note": 79,
          "note_name": "G5",
          "start_time": 9.0,
          "duration": 1.0,
          "velocity": 100,
          "channel": 0
        },
        {
          "note": 81,
          "note_name": "A5",
          "start_time": 10.0,
          "duration": 1.0,
          "velocity": 100,
          "channel": 0
        },
        {
          "note": 76,
          "note_name": "E5",
          "start_time": 11.0,
          "duration": 1.0,
          "velocity": 100,
          "channel": 0
        }
      ],
      "audio_file_path": null,
      "audio_offset": null
    },
    {
      "id": "39fb4b57-8047-4b94-bc6a-1bd2c3dae36c",
      "name": "Clip 2",
      "type": "midi",
      "track_id": "e25004f8-872f-427e-b528-1c7150bf0fc4",
      "start_time": 16.0,
      "duration": 4.0,
      "is_muted": false,
      "is_looped": false,
      "gain": 1.5,
      "midi_events": [],
      "audio_file_path": null,
      "audio_offset": null
    },
    {
      "id": "03ce4972-8fee-4354-b578-1e253ccb5e45",
      "name": "Clip 3",
      "type": "midi",
      "track_id": "19a384f8-196d-4280-b16f-f5fbd54c3924",
      "start_time": 17.0,
      "duration": 4.0,
      "is_muted": false,
      "is_looped": false,
      "gain": 1.0,
      "midi_events": [],
      "audio_file_path": null,
      "audio_offset": null
    },
    {
      "id": "f62c6374-1ef8-4383-8801-40be9f172249",
      "name": "Clip 4",
      "type": "midi",
      "track_id": "19a384f8-196d-4280-b16f-f5fbd54c3924",
      "start_time": 6.0,
      "duration": 4.0,
      "is_muted": false,
      "is_looped": false,
      "gain": 1.0,
      "midi_events": [
        {
          "note": 108,
          "note_name": "C8",
          "start_time": 0.0,
          "duration": 1.0,
          "velocity": 100,
          "channel": 0
        },
        {
          "note": 106,
          "note_name": "A#7",
          "start_time": 1.0,
          "duration": 1.0,
          "velocity": 100,
          "channel": 0
        },
        {
          "note": 107,
          "note_name": "B7",
          "start_time": 2.0,
          "duration": 1.0,
          "velocity": 100,
          "channel": 0
        },
        {
          "note": 105,
          "note_name": "A7",
          "start_time": 3.0,
          "duration": 1.0,
          "velocity": 100,
          "channel": 0
        },
        {
          "note": 104,
          "note_name": "G#7",
          "start_time": 2.0,
          "duration": 1.0,
          "velocity": 100,
          "channel": 0
        },
        {
          "note": 103,
          "note_name": "G7",
          "start_time": 3.0,
          "duration": 1.0,
          "velocity": 100,
          "channel": 0
        }
      ],
      "audio_file_path": null,
      "audio_offset": null
    }
  ],
  "is_playing": true,
  "current_position": 16.461100101470947,
  "loop_enabled": true,
  "loop_start": 6.0,
  "loop_end": 22.0,
  "zoom": 1.2899450879999999,
  "snap_enabled": true,
  "grid_size": 1,
  "created_at": "2026-02-13T14:49:01.328412",
  "updated_at": "2026-02-13T18:56:50.383995"
}